<svg xmlns="http://www.w3.org/2000/svg" version="1.1" xmlns:xlink="http://www.w3.org/1999/xlink" xmlns:svgjs="http://svgjs.dev/svgjs" width="1500" height="1500" viewBox="0 0 1500 1500"><rect width="1500" height="1500" fill="#000000"></rect><g transform="matrix(0.6666666666666666,0,0,0.6666666666666666,249.39393939393932,554.328275018305)"><svg viewBox="0 0 396 155" data-background-color="#efefef" preserveAspectRatio="xMidYMid meet" height="587" width="1500" xmlns="http://www.w3.org/2000/svg" xmlns:xlink="http://www.w3.org/1999/xlink"><g id="tight-bounds" transform="matrix(1,0,0,1,0.24000000000003752,0.002003506378358111)"><svg viewBox="0 0 395.5199999999999 154.99599298724328" height="154.99599298724328" width="395.5199999999999"><g><svg viewBox="0 0 397.4976 155.7709729521795" height="154.99599298724328" width="395.5199999999999"><g><rect width="397.4976" height="2.458115087396587" x="0" y="87.91782304019034" fill="#ffffff" opacity="1" stroke-width="0" stroke="transparent" fill-opacity="1" class="rect-yte-0" data-fill-palette-color="primary" rx="1%" id="yte-0" data-palette-color="#d94e28"></rect></g><g transform="matrix(1,0,0,1,0.9887999999999693,96.81079437731621)"><svg viewBox="0 0 395.52000000000004 58.96017857486328" height="58.96017857486328" width="395.52000000000004"><g id="textblocktransform"><svg viewBox="0 0 395.52000000000004 58.96017857486328" height="58.96017857486328" width="395.52000000000004" id="textblock"><g><svg viewBox="0 0 395.52000000000004 27.25756218221795" height="27.25756218221795" width="395.52000000000004"><g transform="matrix(1,0,0,1,0,0)"><svg width="395.52000000000004" viewBox="3.65 -37.95 729.13 50.150000000000006" height="27.25756218221795" data-palette-color="#d94e28"><g class="wordmark-text-0" data-fill-palette-color="primary" id="text-0"><path d="M19.35 0.75L19.35 0.75Q14.15 0.75 10.65-1.58 7.15-3.9 5.4-8.03 3.65-12.15 3.65-17.6L3.65-17.6Q3.65-23.05 5.4-27.2 7.15-31.35 10.65-33.68 14.15-36 19.35-36L19.35-36Q22.45-36 24.9-35.45 27.35-34.9 29.7-34.3L29.7-34.3 29.2-27 26.3-27.2 26.3-29.5Q26.3-30 25.95-31.2 25.6-32.4 25.35-33.3L25.35-33.3 26.65-31.65Q25.2-32.3 23.13-32.77 21.05-33.25 19.35-33.25L19.35-33.25Q15.75-33.25 13.33-31.18 10.9-29.1 9.7-25.58 8.5-22.05 8.5-17.65L8.5-17.65Q8.5-13.3 9.7-9.75 10.9-6.2 13.3-4.1 15.7-2 19.3-2L19.3-2Q21.1-2 23.33-2.43 25.55-2.85 27.1-3.5L27.1-3.5 25.7-1.8Q26-2.55 26.25-3.38 26.5-4.2 26.68-4.9 26.85-5.6 26.85-5.95L26.85-5.95 26.95-8.3 29.85-8.4 30.15-0.95Q27.8-0.35 25.1 0.2 22.4 0.75 19.35 0.75ZM47.55 0.5L47.55 0.5Q43.75 0.5 41.2-1.15 38.65-2.8 37.37-5.68 36.1-8.55 36.1-12.3L36.1-12.3Q36.1-16.1 37.37-18.98 38.65-21.85 41.2-23.5 43.75-25.15 47.55-25.15L47.55-25.15Q53.25-25.15 56.07-21.63 58.9-18.1 58.9-12.3L58.9-12.3Q58.9-8.55 57.62-5.65 56.35-2.75 53.82-1.13 51.3 0.5 47.55 0.5ZM47.55-2.2L47.55-2.2Q50.25-2.2 51.8-3.7 53.35-5.2 53.97-7.53 54.6-9.85 54.6-12.3L54.6-12.3Q54.6-14.8 53.97-17.13 53.35-19.45 51.8-20.95 50.25-22.45 47.55-22.45L47.55-22.45Q44.85-22.45 43.3-20.98 41.75-19.5 41.07-17.18 40.4-14.85 40.4-12.3L40.4-12.3Q40.4-9.8 41.07-7.48 41.75-5.15 43.3-3.68 44.85-2.2 47.55-2.2ZM93.4 0.25L93.4 0.25 93.15-2.15 98.15-3.35 96.34-1.75Q96.5-2.3 96.65-3.2 96.8-4.1 96.92-5.08 97.05-6.05 97.05-6.7L97.05-6.7 97.05-13.6Q97.05-15.8 96.69-17.78 96.34-19.75 95.34-21 94.34-22.25 92.4-22.25L92.4-22.25Q89.5-22.25 87.8-19.83 86.09-17.4 86-13.7L86-13.7 84.75-18.45Q85.65-21.75 88-23.43 90.34-25.1 93.09-25.1L93.09-25.1Q96.34-25.1 98-23.68 99.65-22.25 100.22-19.65 100.8-17.05 100.8-13.55L100.8-13.55 100.8-8.2Q100.8-6.95 100.9-5.68 101-4.4 101.12-3.43 101.25-2.45 101.3-2L101.3-2 99.5-3.1 105.09-2.6 104.8 0 98.4 0Q98.15 0 97.27 0.05 96.4 0.1 95.32 0.15 94.25 0.2 93.4 0.25ZM63.3 0.25L63.3 0.25 63.05-2.15 68.64-3.3 66.64-1.45Q66.75-1.85 66.92-2.85 67.09-3.85 67.27-4.98 67.45-6.1 67.45-6.7L67.45-6.7 67.45-17.8Q67.45-18.45 67.3-19.58 67.14-20.7 66.95-21.83 66.75-22.95 66.64-23.45L66.64-23.45 68.64-21.15 63.15-22.1 63.4-24.7 69.59-24.7 70.55-23.8 71.25-16.45 71.25-8.2Q71.25-6.25 71.4-4.2 71.55-2.15 71.7-1.25L71.7-1.25 69.84-3.1 75.5-2.6 75.15 0 68.8 0Q68.3 0 67.34 0.05 66.39 0.1 65.32 0.15 64.25 0.2 63.3 0.25ZM78.59 0.25L78.59 0.25 78.34-2.15 83.34-3.35 81.55-1.75Q81.7-2.3 81.84-3.2 82-4.1 82.12-5.08 82.25-6.05 82.25-6.7L82.25-6.7 82.25-13.6Q82.25-15.8 81.9-17.78 81.55-19.75 80.55-21 79.55-22.25 77.59-22.25L77.59-22.25Q74.7-22.25 73-19.85 71.3-17.45 71.25-13.75L71.25-13.75 69.95-18.5Q70.55-20.7 71.82-22.15 73.09-23.6 74.77-24.35 76.45-25.1 78.3-25.1L78.3-25.1Q81.55-25.1 83.2-23.68 84.84-22.25 85.42-19.65 86-17.05 86-13.55L86-13.55 86-8.2Q86-6.95 86.09-5.68 86.2-4.4 86.32-3.43 86.45-2.45 86.5-2L86.5-2 84.7-3.1 90.34-2.6 90 0 83.59 0Q83.34 0 82.47 0.05 81.59 0.1 80.52 0.15 79.45 0.2 78.59 0.25ZM138.34 0.25L138.34 0.25 138.09-2.15 143.09-3.35 141.29-1.75Q141.44-2.3 141.59-3.2 141.74-4.1 141.87-5.08 141.99-6.05 141.99-6.7L141.99-6.7 141.99-13.6Q141.99-15.8 141.64-17.78 141.29-19.75 140.29-21 139.29-22.25 137.34-22.25L137.34-22.25Q134.44-22.25 132.74-19.83 131.04-17.4 130.94-13.7L130.94-13.7 129.69-18.45Q130.59-21.75 132.94-23.43 135.29-25.1 138.04-25.1L138.04-25.1Q141.29-25.1 142.94-23.68 144.59-22.25 145.17-19.65 145.74-17.05 145.74-13.55L145.74-13.55 145.74-8.2Q145.74-6.95 145.84-5.68 145.94-4.4 146.07-3.43 146.19-2.45 146.24-2L146.24-2 144.44-3.1 150.04-2.6 149.74 0 143.34 0Q143.09 0 142.22 0.05 141.34 0.1 140.27 0.15 139.19 0.2 138.34 0.25ZM108.24 0.25L108.24 0.25 107.99-2.15 113.59-3.3 111.59-1.45Q111.69-1.85 111.87-2.85 112.04-3.85 112.22-4.98 112.39-6.1 112.39-6.7L112.39-6.7 112.39-17.8Q112.39-18.45 112.24-19.58 112.09-20.7 111.89-21.83 111.69-22.95 111.59-23.45L111.59-23.45 113.59-21.15 108.09-22.1 108.34-24.7 114.54-24.7 115.49-23.8 116.19-16.45 116.19-8.2Q116.19-6.25 116.34-4.2 116.49-2.15 116.64-1.25L116.64-1.25 114.79-3.1 120.44-2.6 120.09 0 113.74 0Q113.24 0 112.29 0.05 111.34 0.1 110.27 0.15 109.19 0.2 108.24 0.25ZM123.54 0.25L123.54 0.25 123.29-2.15 128.29-3.35 126.49-1.75Q126.64-2.3 126.79-3.2 126.94-4.1 127.07-5.08 127.19-6.05 127.19-6.7L127.19-6.7 127.19-13.6Q127.19-15.8 126.84-17.78 126.49-19.75 125.49-21 124.49-22.25 122.54-22.25L122.54-22.25Q119.64-22.25 117.94-19.85 116.24-17.45 116.19-13.75L116.19-13.75 114.89-18.5Q115.49-20.7 116.77-22.15 118.04-23.6 119.72-24.35 121.39-25.1 123.24-25.1L123.24-25.1Q126.49-25.1 128.14-23.68 129.79-22.25 130.37-19.65 130.94-17.05 130.94-13.55L130.94-13.55 130.94-8.2Q130.94-6.95 131.04-5.68 131.14-4.4 131.27-3.43 131.39-2.45 131.44-2L131.44-2 129.64-3.1 135.29-2.6 134.94 0 128.54 0Q128.29 0 127.42 0.05 126.54 0.1 125.47 0.15 124.39 0.2 123.54 0.25ZM164.19 0.55L164.19 0.55Q160.69 0.55 158.97-0.93 157.24-2.4 156.69-5.03 156.14-7.65 156.14-11.05L156.14-11.05 156.14-17.8Q156.14-18.25 156.04-19.13 155.94-20 155.76-21.05 155.59-22.1 155.44-22.95L155.44-22.95 157.24-21.1 152.29-22.1 152.49-24.7 159.29-24.7 160.24-23.8Q160.19-22.75 160.09-21.35 159.99-19.95 159.94-18.6 159.89-17.25 159.89-16.3L159.89-16.3 159.89-9.15Q159.89-6.25 160.99-4.38 162.09-2.5 164.99-2.5L164.99-2.5Q167.14-2.5 168.54-3.65 169.94-4.8 170.66-6.63 171.39-8.45 171.39-10.4L171.39-10.4 171.39-17.8Q171.39-18.25 171.29-19.13 171.19-20 171.04-21.05 170.89-22.1 170.74-22.95L170.74-22.95 172.59-21.15 167.39-22.1 167.59-24.7 174.54-24.7 175.49-23.8Q175.44-22.75 175.37-21.35 175.29-19.95 175.24-18.6 175.19-17.25 175.19-16.3L175.19-16.3 175.19-8.2Q175.19-6.5 175.41-4.78 175.64-3.05 175.79-1.3L175.79-1.3 173.99-3.15 179.19-2.6 178.89 0 172.64 0 171.69-5.55 172.19-4.35Q171.89-3.75 171.01-2.58 170.14-1.4 168.51-0.43 166.89 0.55 164.19 0.55ZM182.24 0.25L182.24 0.25 181.99-2.15 187.59-3.3 185.59-1.45Q185.69-1.85 185.86-2.85 186.04-3.85 186.21-4.98 186.39-6.1 186.39-6.7L186.39-6.7 186.39-17.8Q186.39-18.45 186.24-19.58 186.09-20.7 185.89-21.83 185.69-22.95 185.59-23.45L185.59-23.45 187.59-21.15 182.09-22.1 182.34-24.7 188.54-24.7 189.49-23.8 190.19-16.3 189.09-19.2Q189.84-21.1 191.01-22.4 192.19-23.7 193.79-24.4 195.39-25.1 197.29-25.1L197.29-25.1Q200.84-25.1 202.64-23.68 204.44-22.25 205.09-19.65 205.74-17.05 205.74-13.55L205.74-13.55 205.74-8.2Q205.74-6.35 205.91-4.55 206.09-2.75 206.24-1.75L206.24-1.75 204.44-3.1 210.09-2.6 209.74 0 203.34 0Q203.14 0 202.24 0.05 201.34 0.1 200.26 0.15 199.19 0.2 198.34 0.25L198.34 0.25 198.09-2.15 203.09-3.35 201.24-2.2Q201.39-2.7 201.56-3.43 201.74-4.15 201.86-5 201.99-5.85 201.99-6.7L201.99-6.7 201.99-13.6Q201.99-15.8 201.59-17.78 201.19-19.75 200.04-21 198.89-22.25 196.69-22.25L196.69-22.25Q193.64-22.25 191.91-19.85 190.19-17.45 190.19-13.75L190.19-13.75 190.19-8.2Q190.19-6.25 190.34-4.2 190.49-2.15 190.64-1.25L190.64-1.25 188.79-3.1 194.44-2.6 194.09 0 187.74 0Q187.24 0 186.29 0.05 185.34 0.1 184.26 0.15 183.19 0.2 182.24 0.25ZM213.19 0.25L213.19 0.25 212.94-2.15 218.53-3.3 216.53-1.45Q216.63-1.85 216.81-2.85 216.99-3.85 217.16-4.98 217.34-6.1 217.34-6.7L217.34-6.7 217.34-17.8Q217.34-18.45 217.21-19.48 217.09-20.5 216.91-21.6 216.74-22.7 216.59-23.45L216.59-23.45 218.53-21.15 213.03-22.1 213.28-24.7 220.49-24.7 221.44-23.8Q221.38-23.05 221.31-21.73 221.24-20.4 221.19-18.95 221.13-17.5 221.13-16.3L221.13-16.3 221.13-8.2Q221.13-6.25 221.28-4.2 221.44-2.15 221.59-1.25L221.59-1.25 219.74-3.1 225.38-2.6 225.03 0 218.69 0Q218.19 0 217.24 0.05 216.28 0.1 215.21 0.15 214.13 0.2 213.19 0.25ZM218.49-29.6L218.49-29.6Q217.09-29.6 216.34-30.45 215.59-31.3 215.59-32.7L215.59-32.7Q215.59-34.15 216.34-35.02 217.09-35.9 218.49-35.9L218.49-35.9Q219.88-35.9 220.63-35.08 221.38-34.25 221.38-32.7L221.38-32.7Q221.38-31.3 220.66-30.45 219.94-29.6 218.49-29.6ZM237.53 0.75L237.53 0.75Q234.18 0.75 233.06-1.05 231.93-2.85 231.93-6.2L231.93-6.2 231.93-23.75 233.53-22.1 227.73-22.1 227.58-24.1Q228.23-24.35 229.18-24.68 230.13-25 231.11-25.35 232.08-25.7 232.68-25.9L232.68-25.9 230.98-24.25Q231.23-24.55 231.66-25.33 232.08-26.1 232.53-27.08 232.98-28.05 233.38-28.85 233.78-29.65 233.93-30L233.93-30 235.73-29.8 235.73-6Q235.73-4.3 236.33-3.35 236.93-2.4 238.63-2.4L238.63-2.4Q239.73-2.4 240.91-2.93 242.08-3.45 243.03-4.3L243.03-4.3 244.38-2.15Q242.58-0.7 240.86 0.03 239.13 0.75 237.53 0.75ZM242.88-22.1L234.88-22.1 234.88-24.7 243.13-24.7 242.88-22.1ZM267.88-15.9L257.53 12.2 254.43 10.95 254.33 10.55Q255.18 9.25 255.83 8.03 256.48 6.8 257.06 5.43 257.63 4.05 258.26 2.35 258.88 0.65 259.68-1.6L259.68-1.6 259.78 1.5 251.88-16.7Q251.18-18.35 250.28-19.95 249.38-21.55 248.48-23.15L248.48-23.15 250.88-21.25 246.88-22.1 247.13-24.7 257.93-24.7 258.08-22.1 252.63-21.55 253.83-23.35Q254.23-21.9 254.63-20.38 255.03-18.85 255.63-17.4L255.63-17.4 261.43-3.35 260.13-3.35 265.23-16.7Q265.83-18.3 266.28-19.98 266.73-21.65 267.13-23.3L267.13-23.3 268.33-21.4 262.88-22.35 263.13-24.7 273.08-24.7 273.23-22.1 268.88-21.45 271.23-23.25Q270.38-21.4 269.48-19.6 268.58-17.8 267.88-15.9L267.88-15.9ZM288.93-11.25L278.18-11.25 278.08-14.3 289.18-14.3 288.93-11.25ZM316.98 0.25L316.98 0.25 316.73-2.2 322.48-3.35 320.48-1.4Q320.63-2.15 320.8-3.2 320.98-4.25 321.08-5.25 321.18-6.25 321.18-6.75L321.18-6.75 321.18-28.5Q321.18-29.05 321.05-30.15 320.93-31.25 320.75-32.35 320.58-33.45 320.48-33.9L320.48-33.9 322.48-32 316.88-32.9 317.13-35.5Q318.08-35.45 319.23-35.4 320.38-35.35 321.38-35.3 322.38-35.25 322.83-35.25L322.83-35.25Q324.13-35.25 325.83-35.33 327.53-35.4 329.58-35.5L329.58-35.5 329.78-32.65 324.18-32.15 325.98-33.9Q325.93-33.05 325.73-31 325.53-28.95 325.53-27L325.53-27 325.53-8.25Q325.53-6.95 325.6-5.6 325.68-4.25 325.83-3.15 325.98-2.05 326.08-1.4L326.08-1.4 324.18-3.15 330.43-2.65 330.08 0 323.68 0Q322.43 0 320.73 0.08 319.03 0.15 316.98 0.25ZM295.93 0.25L295.93 0.25 295.68-2.2 301.38-3.35 299.43-1.4Q299.53-1.85 299.68-2.93 299.83-4 299.98-5.13 300.13-6.25 300.13-6.75L300.13-6.75 300.13-28.5Q300.13-29.05 300-30.13 299.88-31.2 299.7-32.3 299.53-33.4 299.43-33.9L299.43-33.9 301.38-32 295.78-32.9 296.03-35.5Q296.98-35.45 298.13-35.4 299.28-35.35 300.3-35.3 301.33-35.25 301.78-35.25L301.78-35.25Q303.08-35.25 304.78-35.33 306.48-35.4 308.53-35.5L308.53-35.5 308.73-32.65 303.08-32.15 304.98-33.9Q304.93-33.5 304.78-32.35 304.63-31.2 304.53-29.75 304.43-28.3 304.43-27L304.43-27 304.43-8.25Q304.43-6.95 304.53-5.63 304.63-4.3 304.78-3.18 304.93-2.05 305.03-1.4L305.03-1.4 303.08-3.15 309.38-2.65 309.03 0 302.63 0Q301.38 0 299.68 0.08 297.98 0.15 295.93 0.25ZM323.93-16.45L301.68-16.45 301.68-18.85 323.93-19.1 323.93-16.45ZM346.92 0.5L346.92 0.5Q343.17 0.5 340.62-1.15 338.07-2.8 336.8-5.7 335.52-8.6 335.52-12.25L335.52-12.25Q335.52-15.95 336.67-18.85 337.82-21.75 340.22-23.43 342.62-25.1 346.27-25.1L346.27-25.1Q349.77-25.1 351.82-23.65 353.87-22.2 354.8-19.6 355.72-17 355.72-13.6L355.72-13.6 354.92-12 338.72-12 338.72-14.25 353.17-15.35 351.57-13.6Q351.57-14.25 351.6-14.88 351.62-15.5 351.62-16.25L351.62-16.25Q351.62-18.9 350.27-20.8 348.92-22.7 346.12-22.7L346.12-22.7Q344.27-22.7 343.02-21.78 341.77-20.85 341.07-19.3 340.37-17.75 340.07-15.98 339.77-14.2 339.77-12.45L339.77-12.45Q339.77-10.8 340.17-9.08 340.57-7.35 341.42-5.85 342.27-4.35 343.55-3.45 344.82-2.55 346.62-2.55L346.62-2.55Q348.97-2.55 351.1-3.28 353.22-4 354.32-4.65L354.32-4.65 355.62-2.45Q355.77-2.6 355.27-2.18 354.77-1.75 353.65-1.13 352.52-0.5 350.85 0 349.17 0.5 346.92 0.5ZM359.37 0.25L359.37 0.25 359.12-2.15 364.72-3.3 362.72-1.45Q362.82-1.85 363-2.85 363.17-3.85 363.35-4.98 363.52-6.1 363.52-6.7L363.52-6.7 363.52-30.9Q363.52-31.55 363.4-32.58 363.27-33.6 363.1-34.7 362.92-35.8 362.77-36.55L362.77-36.55 364.72-34.25 359.22-35.45 359.47-37.95 363.92-37.8 366.67-37.8 367.62-36.9Q367.57-36.15 367.5-34.83 367.42-33.5 367.37-32.05 367.32-30.6 367.32-29.4L367.32-29.4 367.32-8.2Q367.32-6.2 367.47-4.17 367.62-2.15 367.77-1.25L367.77-1.25 365.92-3.1 371.57-2.6 371.22 0 364.87 0Q364.37 0 363.42 0.05 362.47 0.1 361.4 0.15 360.32 0.2 359.37 0.25ZM374.47 11.65L374.47 11.65 374.22 9.2 379.27 8.05 377.27 9.95Q377.37 9.55 377.54 8.55 377.72 7.55 377.89 6.43 378.07 5.3 378.07 4.7L378.07 4.7 378.07-17.8Q378.07-18.45 377.89-19.58 377.72-20.7 377.52-21.83 377.32-22.95 377.22-23.45L377.22-23.45 379.27-21.15 373.77-22.1 374.02-24.7 380.22-24.7 381.17-23.8 381.57-18.95 381.27-19.75Q381.42-21.1 382.57-22.33 383.72-23.55 385.32-24.33 386.92-25.1 388.37-25.1L388.37-25.1Q393.27-25.1 395.99-21.88 398.72-18.65 398.72-12.8L398.72-12.8Q398.72-9 397.22-5.98 395.72-2.95 393.14-1.23 390.57 0.5 387.32 0.5L387.32 0.5Q385.82 0.5 384.22 0.03 382.62-0.45 381.07-1.25L381.07-1.25 381.12-4.8Q382.62-3.55 384.14-2.95 385.67-2.35 387.07-2.35L387.07-2.35Q390.67-2.35 392.62-5.05 394.57-7.75 394.57-12.75L394.57-12.75Q394.57-17.5 392.94-19.93 391.32-22.35 388.22-22.35L388.22-22.35Q385.32-22.35 383.57-20.13 381.82-17.9 381.82-14.3L381.82-14.3 381.82 3.2Q381.82 5.15 381.99 7.2 382.17 9.25 382.32 10.15L382.32 10.15 380.47 8.25 387.17 8.75 386.87 11.4 379.42 11.4Q378.92 11.4 378.09 11.45 377.27 11.5 376.32 11.55 375.37 11.6 374.47 11.65ZM414.77 0.5L414.77 0.5Q411.02 0.5 408.47-1.15 405.92-2.8 404.64-5.7 403.37-8.6 403.37-12.25L403.37-12.25Q403.37-15.95 404.52-18.85 405.67-21.75 408.07-23.43 410.47-25.1 414.12-25.1L414.12-25.1Q417.62-25.1 419.67-23.65 421.72-22.2 422.64-19.6 423.57-17 423.57-13.6L423.57-13.6 422.77-12 406.57-12 406.57-14.25 421.02-15.35 419.42-13.6Q419.42-14.25 419.44-14.88 419.47-15.5 419.47-16.25L419.47-16.25Q419.47-18.9 418.12-20.8 416.77-22.7 413.97-22.7L413.97-22.7Q412.12-22.7 410.87-21.78 409.62-20.85 408.92-19.3 408.22-17.75 407.92-15.98 407.62-14.2 407.62-12.45L407.62-12.45Q407.62-10.8 408.02-9.08 408.42-7.35 409.27-5.85 410.12-4.35 411.39-3.45 412.67-2.55 414.47-2.55L414.47-2.55Q416.82-2.55 418.94-3.28 421.07-4 422.17-4.65L422.17-4.65 423.47-2.45Q423.62-2.6 423.12-2.18 422.62-1.75 421.49-1.13 420.37-0.5 418.69 0 417.02 0.5 414.77 0.5ZM427.91 0.25L427.91 0.25 427.66-2.15 433.26-3.3 431.26-1.45Q431.36-1.85 431.54-2.85 431.71-3.85 431.89-4.98 432.06-6.1 432.06-6.7L432.06-6.7 432.06-17.8Q432.06-18.45 431.91-19.58 431.76-20.7 431.56-21.83 431.36-22.95 431.26-23.45L431.26-23.45 433.26-21.15 427.76-22.1 428.01-24.7 434.21-24.7 435.16-23.8 435.86-16.3 434.36-17.9Q434.91-19.25 435.61-20.53 436.31-21.8 437.34-22.85 438.36-23.9 439.89-24.53 441.41-25.15 443.61-25.15L443.61-25.15Q444.46-25.15 445.29-25.03 446.11-24.9 446.91-24.65L446.91-24.65 446.46-16.6 443.61-16.75 443.61-19.35Q443.61-19.6 443.41-20.3 443.21-21 442.94-21.83 442.66-22.65 442.41-23.2L442.41-23.2 444.76-21.9Q444.26-21.85 443.74-21.85 443.21-21.85 442.71-21.85L442.71-21.85Q439.11-21.85 437.49-19.7 435.86-17.55 435.86-14L435.86-14 435.86-8.2Q435.86-6.25 436.01-4.2 436.16-2.15 436.31-1.25L436.31-1.25 434.46-3.1 441.16-2.6 440.86 0 433.41 0Q432.91 0 431.96 0.05 431.01 0.1 429.94 0.15 428.86 0.2 427.91 0.25ZM463.26-11.25L452.51-11.25 452.41-14.3 463.51-14.3 463.26-11.25ZM469.71 0.25L469.71 0.25 469.51-2.1 474.31-3.45 472.31-2.2Q472.66-2.95 473.13-3.88 473.61-4.8 474.08-5.88 474.56-6.95 474.91-8L474.91-8 483.76-35.25 486.51-35.75 496.86-7.55Q497.31-6.15 497.98-4.8 498.66-3.45 499.21-2.25L499.21-2.25 497.11-3.5 501.96-2.65 501.71 0 496.61 0Q496.01 0 494.81 0.05 493.61 0.1 492.23 0.15 490.86 0.2 489.66 0.25L489.66 0.25 489.51-2.1 494.81-3.7 493.41-2.05Q493.11-3.85 492.76-5.48 492.41-7.1 491.76-8.75L491.76-8.75 484.31-29.65 485.36-29.65 477.91-6.4Q477.56-5.35 477.46-4.23 477.36-3.1 477.26-2.1L477.26-2.1 475.71-3.4 480.96-2.65 480.71 0 476.46 0Q475.86 0 474.68 0.05 473.51 0.1 472.18 0.15 470.86 0.2 469.71 0.25ZM492.46-11.25L478.31-11.25 478.31-13.8 492.46-13.8 492.46-11.25ZM506.11 11.65L506.11 11.65 505.86 9.2 510.91 8.05 508.91 9.95Q509.01 9.55 509.18 8.55 509.36 7.55 509.53 6.43 509.71 5.3 509.71 4.7L509.71 4.7 509.71-17.8Q509.71-18.45 509.53-19.58 509.36-20.7 509.16-21.83 508.96-22.95 508.86-23.45L508.86-23.45 510.91-21.15 505.41-22.1 505.66-24.7 511.86-24.7 512.81-23.8 513.21-18.95 512.91-19.75Q513.06-21.1 514.21-22.33 515.36-23.55 516.96-24.33 518.56-25.1 520.01-25.1L520.01-25.1Q524.91-25.1 527.63-21.88 530.36-18.65 530.36-12.8L530.36-12.8Q530.36-9 528.86-5.98 527.36-2.95 524.78-1.23 522.21 0.5 518.96 0.5L518.96 0.5Q517.46 0.5 515.86 0.03 514.26-0.45 512.71-1.25L512.71-1.25 512.76-4.8Q514.26-3.55 515.78-2.95 517.31-2.35 518.71-2.35L518.71-2.35Q522.31-2.35 524.26-5.05 526.21-7.75 526.21-12.75L526.21-12.75Q526.21-17.5 524.58-19.93 522.96-22.35 519.86-22.35L519.86-22.35Q516.96-22.35 515.21-20.13 513.46-17.9 513.46-14.3L513.46-14.3 513.46 3.2Q513.46 5.15 513.63 7.2 513.81 9.25 513.96 10.15L513.96 10.15 512.11 8.25 518.81 8.75 518.51 11.4 511.06 11.4Q510.56 11.4 509.73 11.45 508.91 11.5 507.96 11.55 507.01 11.6 506.11 11.65ZM534.45 11.65L534.45 11.65 534.2 9.2 539.25 8.05 537.25 9.95Q537.35 9.55 537.53 8.55 537.7 7.55 537.88 6.43 538.05 5.3 538.05 4.7L538.05 4.7 538.05-17.8Q538.05-18.45 537.88-19.58 537.7-20.7 537.5-21.83 537.3-22.95 537.2-23.45L537.2-23.45 539.25-21.15 533.75-22.1 534-24.7 540.2-24.7 541.15-23.8 541.55-18.95 541.25-19.75Q541.4-21.1 542.55-22.33 543.7-23.55 545.3-24.33 546.9-25.1 548.35-25.1L548.35-25.1Q553.25-25.1 555.98-21.88 558.7-18.65 558.7-12.8L558.7-12.8Q558.7-9 557.2-5.98 555.7-2.95 553.13-1.23 550.55 0.5 547.3 0.5L547.3 0.5Q545.8 0.5 544.2 0.03 542.6-0.45 541.05-1.25L541.05-1.25 541.1-4.8Q542.6-3.55 544.13-2.95 545.65-2.35 547.05-2.35L547.05-2.35Q550.65-2.35 552.6-5.05 554.55-7.75 554.55-12.75L554.55-12.75Q554.55-17.5 552.93-19.93 551.3-22.35 548.2-22.35L548.2-22.35Q545.3-22.35 543.55-20.13 541.8-17.9 541.8-14.3L541.8-14.3 541.8 3.2Q541.8 5.15 541.98 7.2 542.15 9.25 542.3 10.15L542.3 10.15 540.45 8.25 547.15 8.75 546.85 11.4 539.4 11.4Q538.9 11.4 538.08 11.45 537.25 11.5 536.3 11.55 535.35 11.6 534.45 11.65ZM562.3 0.25L562.3 0.25 562.05-2.15 567.65-3.3 565.65-1.45Q565.75-1.85 565.92-2.85 566.1-3.85 566.27-4.98 566.45-6.1 566.45-6.7L566.45-6.7 566.45-30.9Q566.45-31.55 566.33-32.58 566.2-33.6 566.02-34.7 565.85-35.8 565.7-36.55L565.7-36.55 567.65-34.25 562.15-35.45 562.4-37.95 566.85-37.8 569.6-37.8 570.55-36.9Q570.5-36.15 570.42-34.83 570.35-33.5 570.3-32.05 570.25-30.6 570.25-29.4L570.25-29.4 570.25-8.2Q570.25-6.2 570.4-4.17 570.55-2.15 570.7-1.25L570.7-1.25 568.85-3.1 574.5-2.6 574.15 0 567.8 0Q567.3 0 566.35 0.05 565.4 0.1 564.33 0.15 563.25 0.2 562.3 0.25ZM577.6 0.25L577.6 0.25 577.35-2.15 582.95-3.3 580.95-1.45Q581.05-1.85 581.22-2.85 581.4-3.85 581.57-4.98 581.75-6.1 581.75-6.7L581.75-6.7 581.75-17.8Q581.75-18.45 581.62-19.48 581.5-20.5 581.32-21.6 581.15-22.7 581-23.45L581-23.45 582.95-21.15 577.45-22.1 577.7-24.7 584.9-24.7 585.85-23.8Q585.8-23.05 585.72-21.73 585.65-20.4 585.6-18.95 585.55-17.5 585.55-16.3L585.55-16.3 585.55-8.2Q585.55-6.25 585.7-4.2 585.85-2.15 586-1.25L586-1.25 584.15-3.1 589.8-2.6 589.45 0 583.1 0Q582.6 0 581.65 0.05 580.7 0.1 579.62 0.15 578.55 0.2 577.6 0.25ZM582.9-29.6L582.9-29.6Q581.5-29.6 580.75-30.45 580-31.3 580-32.7L580-32.7Q580-34.15 580.75-35.02 581.5-35.9 582.9-35.9L582.9-35.9Q584.3-35.9 585.05-35.08 585.8-34.25 585.8-32.7L585.8-32.7Q585.8-31.3 585.07-30.45 584.35-29.6 582.9-29.6ZM604.59 0.5L604.59 0.5Q600.79 0.5 598.27-1.13 595.74-2.75 594.49-5.65 593.24-8.55 593.24-12.3L593.24-12.3Q593.24-16.1 594.52-18.98 595.79-21.85 598.34-23.48 600.89-25.1 604.69-25.1L604.69-25.1Q606.89-25.1 608.54-24.6 610.19-24.1 612.44-23.3L612.44-23.3 611.94-17.35 609.19-17.5 609.19-19.2Q609.19-19.6 608.92-20.53 608.64-21.45 608.39-22.25L608.39-22.25 609.94-20.65Q608.59-21.35 607.27-21.88 605.94-22.4 604.64-22.4L604.64-22.4Q602.09-22.4 600.57-20.88 599.04-19.35 598.34-17.05 597.64-14.75 597.64-12.3L597.64-12.3Q597.64-9.85 598.32-7.63 598.99-5.4 600.49-4 601.99-2.6 604.54-2.6L604.54-2.6Q606.39-2.6 608.12-3.1 609.84-3.6 611.64-4.45L611.64-4.45 612.99-2.15Q610.89-0.75 608.84-0.13 606.79 0.5 604.59 0.5ZM624.39 0.5L624.39 0.5Q621.04 0.5 619.09-1.23 617.14-2.95 617.14-5.85L617.14-5.85Q617.14-8.45 618.82-10.18 620.49-11.9 623.84-12.45L623.84-12.45 632.59-13.9 632.59-11.45 624.44-9.9Q622.94-9.65 622.09-8.75 621.24-7.85 621.24-6.55L621.24-6.55Q621.24-4.65 622.22-3.58 623.19-2.5 624.99-2.5L624.99-2.5Q627.64-2.5 629.62-4.2 631.59-5.9 631.94-8.4L631.94-8.4 631.94-15.45Q631.94-19.05 630.74-20.83 629.54-22.6 627.14-22.6L627.14-22.6Q626.09-22.6 624.89-22.4 623.69-22.2 622.64-21.85 621.59-21.5 621.04-21.1L621.04-21.1 622.59-23.25 621.99-19.5 622.04-17.45 619.14-17.3 618.64-23.95Q620.14-24.35 621.64-24.6 623.14-24.85 624.64-24.98 626.14-25.1 627.64-25.1L627.64-25.1Q632.09-25.1 633.89-22.68 635.69-20.25 635.69-14.35L635.69-14.35 635.69-8.2Q635.69-5.95 635.97-4.28 636.24-2.6 636.44-1.65L636.44-1.65 634.79-3.15 639.69-2.6 639.39 0 633.14 0 632.14-5.65 633.04-5.8Q632.94-4.4 631.72-2.93 630.49-1.45 628.57-0.48 626.64 0.5 624.39 0.5ZM651.84 0.75L651.84 0.75Q648.49 0.75 647.36-1.05 646.24-2.85 646.24-6.2L646.24-6.2 646.24-23.75 647.84-22.1 642.04-22.1 641.89-24.1Q642.54-24.35 643.49-24.68 644.44-25 645.41-25.35 646.39-25.7 646.99-25.9L646.99-25.9 645.29-24.25Q645.54-24.55 645.96-25.33 646.39-26.1 646.84-27.08 647.29-28.05 647.69-28.85 648.09-29.65 648.24-30L648.24-30 650.04-29.8 650.04-6Q650.04-4.3 650.64-3.35 651.24-2.4 652.94-2.4L652.94-2.4Q654.04-2.4 655.21-2.93 656.39-3.45 657.34-4.3L657.34-4.3 658.69-2.15Q656.89-0.7 655.16 0.03 653.44 0.75 651.84 0.75ZM657.19-22.1L649.19-22.1 649.19-24.7 657.44-24.7 657.19-22.1ZM662.09 0.25L662.09 0.25 661.84-2.15 667.44-3.3 665.44-1.45Q665.54-1.85 665.71-2.85 665.89-3.85 666.06-4.98 666.24-6.1 666.24-6.7L666.24-6.7 666.24-17.8Q666.24-18.45 666.11-19.48 665.99-20.5 665.81-21.6 665.64-22.7 665.49-23.45L665.49-23.45 667.44-21.15 661.94-22.1 662.19-24.7 669.39-24.7 670.34-23.8Q670.29-23.05 670.21-21.73 670.14-20.4 670.09-18.95 670.04-17.5 670.04-16.3L670.04-16.3 670.04-8.2Q670.04-6.25 670.19-4.2 670.34-2.15 670.49-1.25L670.49-1.25 668.64-3.1 674.29-2.6 673.94 0 667.59 0Q667.09 0 666.14 0.05 665.19 0.1 664.11 0.15 663.04 0.2 662.09 0.25ZM667.39-29.6L667.39-29.6Q665.99-29.6 665.24-30.45 664.49-31.3 664.49-32.7L664.49-32.7Q664.49-34.15 665.24-35.02 665.99-35.9 667.39-35.9L667.39-35.9Q668.79-35.9 669.54-35.08 670.29-34.25 670.29-32.7L670.29-32.7Q670.29-31.3 669.56-30.45 668.84-29.6 667.39-29.6ZM689.18 0.5L689.18 0.5Q685.38 0.5 682.83-1.15 680.28-2.8 679.01-5.68 677.73-8.55 677.73-12.3L677.73-12.3Q677.73-16.1 679.01-18.98 680.28-21.85 682.83-23.5 685.38-25.15 689.18-25.15L689.18-25.15Q694.88-25.15 697.71-21.63 700.53-18.1 700.53-12.3L700.53-12.3Q700.53-8.55 699.26-5.65 697.98-2.75 695.46-1.13 692.93 0.5 689.18 0.5ZM689.18-2.2L689.18-2.2Q691.88-2.2 693.43-3.7 694.98-5.2 695.61-7.53 696.23-9.85 696.23-12.3L696.23-12.3Q696.23-14.8 695.61-17.13 694.98-19.45 693.43-20.95 691.88-22.45 689.18-22.45L689.18-22.45Q686.48-22.45 684.93-20.98 683.38-19.5 682.71-17.18 682.03-14.85 682.03-12.3L682.03-12.3Q682.03-9.8 682.71-7.48 683.38-5.15 684.93-3.68 686.48-2.2 689.18-2.2ZM704.93 0.25L704.93 0.25 704.68-2.15 710.28-3.3 708.28-1.45Q708.38-1.85 708.56-2.85 708.73-3.85 708.91-4.98 709.08-6.1 709.08-6.7L709.08-6.7 709.08-17.8Q709.08-18.45 708.93-19.58 708.78-20.7 708.58-21.83 708.38-22.95 708.28-23.45L708.28-23.45 710.28-21.15 704.78-22.1 705.03-24.7 711.23-24.7 712.18-23.8 712.88-16.3 711.78-19.2Q712.53-21.1 713.71-22.4 714.88-23.7 716.48-24.4 718.08-25.1 719.98-25.1L719.98-25.1Q723.53-25.1 725.33-23.68 727.13-22.25 727.78-19.65 728.43-17.05 728.43-13.55L728.43-13.55 728.43-8.2Q728.43-6.35 728.61-4.55 728.78-2.75 728.93-1.75L728.93-1.75 727.13-3.1 732.78-2.6 732.43 0 726.03 0Q725.83 0 724.93 0.05 724.03 0.1 722.96 0.15 721.88 0.2 721.03 0.25L721.03 0.25 720.78-2.15 725.78-3.35 723.93-2.2Q724.08-2.7 724.26-3.43 724.43-4.15 724.56-5 724.68-5.85 724.68-6.7L724.68-6.7 724.68-13.6Q724.68-15.8 724.28-17.78 723.88-19.75 722.73-21 721.58-22.25 719.38-22.25L719.38-22.25Q716.33-22.25 714.61-19.85 712.88-17.45 712.88-13.75L712.88-13.75 712.88-8.2Q712.88-6.25 713.03-4.2 713.18-2.15 713.33-1.25L713.33-1.25 711.48-3.1 717.13-2.6 716.78 0 710.43 0Q709.93 0 708.98 0.05 708.03 0.1 706.96 0.15 705.88 0.2 704.93 0.25Z" fill="#ffffff" data-fill-palette-color="primary"></path></g></svg></g></svg></g><g transform="matrix(1,0,0,1,0,33.69241843194723)"><svg viewBox="0 0 395.52000000000004 25.26776014291604" height="25.26776014291604" width="395.52000000000004"><g transform="matrix(1,0,0,1,0,0)"><svg width="395.52000000000004" viewBox="1 -37.5 782.66 50" height="25.26776014291604" data-palette-color="#d94e28"><path d="M4.2-32.25L1-32.25 1-35 11.1-35 11.1-32.25 7.35-32.25 14.3-5.05 22.55-35 25.35-35 33.15-4.95 40.65-32.25 37.65-32.25 37.65-35 47.45-35 47.45-32.25 43.85-32.25 34.45 0 31.4 0 23.85-29.8 15.6 0 12.5 0 4.2-32.25ZM75.89 0L65.79 0 65.79-2.5 68.84-2.5 68.84-17.1Q68.84-18.85 68.12-19.95 67.39-21.05 66.24-21.4L66.24-21.4Q64.34-22.05 63.14-21.95L63.14-21.95Q59.89-21.85 55.99-19.65L55.99-19.65 55.99-2.5 59.79-2.5 59.79 0 49.69 0 49.69-2.5 52.74-2.5 52.74-35 49.39-35 49.39-37.5 55.99-37.5 55.99-21.9Q62.54-26.4 67.84-24.7L67.84-24.7Q69.04-24.35 69.92-23.68 70.79-23 71.44-21.65 72.09-20.3 72.09-18.4L72.09-18.4 72.09-2.5 75.89-2.5 75.89 0ZM85.04 0.2L85.04 0.2Q78.39 0.2 77.99-5.05L77.99-5.05Q77.94-5.4 77.94-5.75L77.94-5.75Q77.94-9.95 82.99-11.35L82.99-11.35Q85.79-12.05 93.79-12.95L93.79-12.95 93.79-16.8Q93.79-22.25 88.09-22.25L88.09-22.25Q83.99-22.2 79.39-20.35L79.39-20.35 78.54-22.5 79.04-22.7Q82.94-24.4 84.99-24.75 87.04-25.1 87.99-25.13 88.94-25.15 89.81-25.1 90.69-25.05 92.09-24.65 93.49-24.25 94.51-23.53 95.54-22.8 96.29-21.35 97.04-19.9 97.04-17.9L97.04-17.9 97.04-2.5 100.89-2.5 100.89 0 94.29 0 93.79-1.9Q89.29 0.2 85.04 0.2ZM85.94-2.1L85.94-2.1Q89.74-2.1 93.79-3.8L93.79-3.8 93.79-10.95Q86.29-10.7 84.09-9.95L84.09-9.95Q82.39-9.5 81.69-8.33 80.99-7.15 80.99-6.45 80.99-5.75 80.99-5.5L80.99-5.5Q81.14-3.7 82.54-2.9 83.94-2.1 85.94-2.1ZM112.38-2.45L112.38-2.45 114.33-2.55 114.48-0.55Q114.43-0.55 113.78-0.4L113.78-0.4Q112.28-0.05 110.43-0.05L110.43-0.05Q108.73-0.15 107.33-0.63 105.93-1.1 104.73-2.63 103.53-4.15 103.53-6.55L103.53-6.55 103.53-22.1 100.98-22.1 101.38-24.5 103.58-24.95 103.98-29.75 106.78-30 106.78-25 112.83-25 112.83-22.1 106.78-22.1 106.78-7.4Q106.78-2.45 112.38-2.45ZM136.01-8.05L136.26-3.25Q138.36-2.6 139.64-2.6 140.91-2.6 141.31-2.65L141.31-2.65Q143.91-2.7 145.66-3.75 147.41-4.8 147.41-6.7 147.41-8.6 146.04-9.65 144.66-10.7 142.71-11.25 140.76-11.8 138.81-12.45 136.86-13.1 135.49-14.5 134.11-15.9 134.11-18.15L134.11-18.15Q134.11-21.35 136.56-23.28 139.01-25.2 142.76-25.2L142.76-25.2Q145.56-25.2 148.41-24.2L148.41-24.2 149.31-23.85 149.31-18.1 146.86-17.75 146.66-22Q144.66-22.3 143.31-22.3L143.31-22.3Q140.56-22.3 138.96-21.23 137.36-20.15 137.36-18.48 137.36-16.8 138.74-15.85 140.11-14.9 142.06-14.35 144.01-13.8 145.96-13.13 147.91-12.45 149.29-10.93 150.66-9.4 150.66-6.95L150.66-6.95Q150.66-3.65 148.19-1.73 145.71 0.2 141.16 0.2 136.61 0.2 133.61-1.95L133.61-1.95 133.61-7.7 136.01-8.05ZM165.06-2.45L165.06-2.45 167.01-2.55 167.16-0.55Q167.11-0.55 166.46-0.4L166.46-0.4Q164.96-0.05 163.11-0.05L163.11-0.05Q161.41-0.15 160.01-0.63 158.61-1.1 157.41-2.63 156.21-4.15 156.21-6.55L156.21-6.55 156.21-22.1 153.66-22.1 154.06-24.5 156.26-24.95 156.66-29.75 159.46-30 159.46-25 165.51-25 165.51-22.1 159.46-22.1 159.46-7.4Q159.46-2.45 165.06-2.45ZM177.15 0.2L177.15 0.2Q170.5 0.2 170.1-5.05L170.1-5.05Q170.05-5.4 170.05-5.75L170.05-5.75Q170.05-9.95 175.1-11.35L175.1-11.35Q177.9-12.05 185.9-12.95L185.9-12.95 185.9-16.8Q185.9-22.25 180.2-22.25L180.2-22.25Q176.1-22.2 171.5-20.35L171.5-20.35 170.65-22.5 171.15-22.7Q175.05-24.4 177.1-24.75 179.15-25.1 180.1-25.13 181.05-25.15 181.92-25.1 182.8-25.05 184.2-24.65 185.6-24.25 186.62-23.53 187.65-22.8 188.4-21.35 189.15-19.9 189.15-17.9L189.15-17.9 189.15-2.5 193-2.5 193 0 186.4 0 185.9-1.9Q181.4 0.2 177.15 0.2ZM178.05-2.1L178.05-2.1Q181.85-2.1 185.9-3.8L185.9-3.8 185.9-10.95Q178.4-10.7 176.2-9.95L176.2-9.95Q174.5-9.5 173.8-8.33 173.1-7.15 173.1-6.45 173.1-5.75 173.1-5.5L173.1-5.5Q173.25-3.7 174.65-2.9 176.05-2.1 178.05-2.1ZM201.64-16.75L201.64-2.5 205.79-2.5 205.79 0 195.29 0 195.29-2.5 198.39-2.5 198.39-22.5 195.04-22.5 195.04-25 201.64-25 201.64-18.95Q205.59-24.75 209.39-24.85L209.39-24.85Q209.69-24.85 209.99-24.85L209.99-24.85 212.79-24.5 211.49-21.5Q210.54-21.95 209.04-21.95L209.04-21.95Q205.44-21.9 201.64-16.75L201.64-16.75ZM226.43-2.45L226.43-2.45 228.38-2.55 228.53-0.55Q228.48-0.55 227.83-0.4L227.83-0.4Q226.33-0.05 224.48-0.05L224.48-0.05Q222.78-0.15 221.38-0.63 219.98-1.1 218.78-2.63 217.58-4.15 217.58-6.55L217.58-6.55 217.58-22.1 215.03-22.1 215.43-24.5 217.63-24.95 218.03-29.75 220.83-30 220.83-25 226.88-25 226.88-22.1 220.83-22.1 220.83-7.4Q220.83-2.45 226.43-2.45ZM234.18-8.05L234.43-3.25Q236.53-2.6 237.8-2.6 239.08-2.6 239.48-2.65L239.48-2.65Q242.08-2.7 243.83-3.75 245.58-4.8 245.58-6.7 245.58-8.6 244.2-9.65 242.83-10.7 240.88-11.25 238.93-11.8 236.98-12.45 235.03-13.1 233.65-14.5 232.28-15.9 232.28-18.15L232.28-18.15Q232.28-21.35 234.73-23.28 237.18-25.2 240.93-25.2L240.93-25.2Q243.73-25.2 246.58-24.2L246.58-24.2 247.48-23.85 247.48-18.1 245.03-17.75 244.83-22Q242.83-22.3 241.48-22.3L241.48-22.3Q238.73-22.3 237.13-21.23 235.53-20.15 235.53-18.48 235.53-16.8 236.9-15.85 238.28-14.9 240.23-14.35 242.18-13.8 244.13-13.13 246.08-12.45 247.45-10.93 248.83-9.4 248.83-6.95L248.83-6.95Q248.83-3.65 246.35-1.73 243.88 0.2 239.33 0.2 234.78 0.2 231.78-1.95L231.78-1.95 231.78-7.7 234.18-8.05ZM295.41 0L285.31 0 285.31-2.5 288.36-2.5 288.36-17.1Q288.36-18.85 287.64-19.95 286.91-21.05 285.76-21.4L285.76-21.4Q283.86-22.05 282.66-21.95L282.66-21.95Q279.41-21.85 275.51-19.65L275.51-19.65 275.51-2.5 279.31-2.5 279.31 0 269.21 0 269.21-2.5 272.26-2.5 272.26-35 268.91-35 268.91-37.5 275.51-37.5 275.51-21.9Q282.06-26.4 287.36-24.7L287.36-24.7Q288.56-24.35 289.44-23.68 290.31-23 290.96-21.65 291.61-20.3 291.61-18.4L291.61-18.4 291.61-2.5 295.41-2.5 295.41 0ZM299.85-11.2L299.85-11.2Q299.85-6.75 302.4-4.73 304.95-2.7 308.35-2.7L308.35-2.7Q310.55-2.7 312.88-3.13 315.2-3.55 315.95-3.9L315.95-3.9 316.6-1.55Q315.45-0.8 312.83-0.3 310.2 0.2 308.03 0.2 305.85 0.2 304.13-0.25 302.4-0.7 300.6-1.85 298.8-3 297.75-5.45 296.7-7.9 296.7-11.45L296.7-11.45Q296.7-18.05 300.1-21.55L300.1-21.55Q303.65-25.2 308.35-25.2 313.05-25.2 315.53-22.6 318-20 318-15.3L318-15.3Q318-14.3 317.85-13.15L317.85-13.15 300-13.15Q299.85-12.1 299.85-11.2ZM315-15.65L315-15.65Q315-18.75 313.15-20.43 311.3-22.1 308.85-22.1L308.85-22.1Q305.5-22.1 303.3-20.08 301.1-18.05 300.35-15.1L300.35-15.1 315-15.1Q315-15.4 315-15.65ZM327.9-16.75L327.9-2.5 332.05-2.5 332.05 0 321.55 0 321.55-2.5 324.65-2.5 324.65-22.5 321.3-22.5 321.3-25 327.9-25 327.9-18.95Q331.85-24.75 335.65-24.85L335.65-24.85Q335.95-24.85 336.25-24.85L336.25-24.85 339.05-24.5 337.75-21.5Q336.8-21.95 335.3-21.95L335.3-21.95Q331.7-21.9 327.9-16.75L327.9-16.75ZM343.84-11.2L343.84-11.2Q343.84-6.75 346.39-4.73 348.94-2.7 352.34-2.7L352.34-2.7Q354.54-2.7 356.86-3.13 359.19-3.55 359.94-3.9L359.94-3.9 360.59-1.55Q359.44-0.8 356.81-0.3 354.19 0.2 352.01 0.2 349.84 0.2 348.11-0.25 346.39-0.7 344.59-1.85 342.79-3 341.74-5.45 340.69-7.9 340.69-11.45L340.69-11.45Q340.69-18.05 344.09-21.55L344.09-21.55Q347.64-25.2 352.34-25.2 357.04-25.2 359.51-22.6 361.99-20 361.99-15.3L361.99-15.3Q361.99-14.3 361.84-13.15L361.84-13.15 343.99-13.15Q343.84-12.1 343.84-11.2ZM358.99-15.65L358.99-15.65Q358.99-18.75 357.14-20.43 355.29-22.1 352.84-22.1L352.84-22.1Q349.49-22.1 347.29-20.08 345.09-18.05 344.34-15.1L344.34-15.1 358.99-15.1Q358.99-15.4 358.99-15.65ZM393.88-22.3L393.88-22.3Q389.63-22.3 387-19.48 384.38-16.65 384.38-11.55L384.38-11.55Q384.38-2.7 392.63-2.7L392.63-2.7Q395.83-2.7 397.98-3.23 400.13-3.75 400.33-3.9L400.33-3.9 401.03-1.55Q399.88-0.8 397.23-0.3 394.58 0.2 392.43 0.2 390.28 0.2 388.53-0.25 386.78-0.7 385-1.85 383.23-3 382.18-5.48 381.13-7.95 381.13-11.5L381.13-11.5Q381.13-18.05 384.48-21.4L384.48-21.4Q388.23-25.25 393.93-25.25L393.93-25.25Q395.73-25.25 397.75-24.78 399.78-24.3 400.88-23.3L400.88-23.3 400.88-16.75 398.43-16.4 398.18-21.65Q396.13-22.3 393.88-22.3ZM431.32 0L421.22 0 421.22-2.5 424.27-2.5 424.27-17.1Q424.27-18.85 423.54-19.95 422.82-21.05 421.67-21.4L421.67-21.4Q419.77-22.05 418.57-21.95L418.57-21.95Q415.32-21.85 411.42-19.65L411.42-19.65 411.42-2.5 415.22-2.5 415.22 0 405.12 0 405.12-2.5 408.17-2.5 408.17-35 404.82-35 404.82-37.5 411.42-37.5 411.42-21.9Q417.97-26.4 423.27-24.7L423.27-24.7Q424.47-24.35 425.34-23.68 426.22-23 426.87-21.65 427.52-20.3 427.52-18.4L427.52-18.4 427.52-2.5 431.32-2.5 431.32 0ZM440.46 0.2L440.46 0.2Q433.81 0.2 433.41-5.05L433.41-5.05Q433.36-5.4 433.36-5.75L433.36-5.75Q433.36-9.95 438.41-11.35L438.41-11.35Q441.21-12.05 449.21-12.95L449.21-12.95 449.21-16.8Q449.21-22.25 443.51-22.25L443.51-22.25Q439.41-22.2 434.81-20.35L434.81-20.35 433.96-22.5 434.46-22.7Q438.36-24.4 440.41-24.75 442.46-25.1 443.41-25.13 444.36-25.15 445.24-25.1 446.11-25.05 447.51-24.65 448.91-24.25 449.94-23.53 450.96-22.8 451.71-21.35 452.46-19.9 452.46-17.9L452.46-17.9 452.46-2.5 456.31-2.5 456.31 0 449.71 0 449.21-1.9Q444.71 0.2 440.46 0.2ZM441.36-2.1L441.36-2.1Q445.16-2.1 449.21-3.8L449.21-3.8 449.21-10.95Q441.71-10.7 439.51-9.95L439.51-9.95Q437.81-9.5 437.11-8.33 436.41-7.15 436.41-6.45 436.41-5.75 436.41-5.5L436.41-5.5Q436.56-3.7 437.96-2.9 439.36-2.1 441.36-2.1ZM461.75-22.5L458.4-22.5 458.4-25 465-25 465-22.2Q469.1-25 472.85-25.15L472.85-25.15Q476.5-25.15 478.4-23.7L478.4-23.7Q479.25-23.05 479.93-21.68 480.6-20.3 480.6-18.4L480.6-18.4 480.6-2.5 484.45-2.5 484.45 0 474.35 0 474.35-2.5 477.35-2.5 477.35-17.15Q477.35-22 471.65-22L471.65-22Q468.55-21.9 465-19.95L465-19.95 465-2.5 468.75-2.5 468.75 0 458.65 0 458.65-2.5 461.75-2.5 461.75-22.5ZM485.85 5.2L485.85 5.2Q485.85 0.7 491.2-2.7L491.2-2.7Q489.1-4.2 489.1-6.28 489.1-8.35 490.9-9.65L490.9-9.65Q487.2-11.45 487.2-16.95L487.2-16.95Q487.2-20.8 490.1-23 493-25.2 497.5-25.2L497.5-25.2Q498.95-25.2 500.45-24.95L500.45-24.95 509.85-25.2 509.75-23.3 504.3-23.3Q507.05-21.25 507.05-17.15 507.05-13.05 504.3-10.8 501.55-8.55 497.2-8.55L497.2-8.55Q494.4-8.55 492.55-9.05L492.55-9.05Q491.6-8.15 491.6-6.75 491.6-5.35 493.32-4.58 495.05-3.8 497.77-3.43 500.5-3.05 501.75-2.78 503-2.5 504.65-1.9 506.3-1.3 507.3-0.5L507.3-0.5Q509.65 1.45 509.65 4.7L509.65 4.7Q509.65 6.95 508.6 8.55 507.55 10.15 505.7 11L505.7 11Q502.3 12.5 497.6 12.5L497.6 12.5Q491.35 12.5 488.6 10.35 485.85 8.2 485.85 5.2ZM489.1 4.85L489.1 4.85Q489.1 6.9 491.1 8.25 493.1 9.6 497.2 9.6L497.2 9.6Q506.4 9.6 506.4 4.7L506.4 4.7Q506.4 2.25 504.2 1.2L504.2 1.2Q502.3 0.25 500-0.2L500-0.2Q495.1-0.9 492.95-1.75L492.95-1.75Q489.1 1.4 489.1 4.85ZM497.35-22.55Q494.25-22.55 492.35-21.13 490.45-19.7 490.45-16.88 490.45-14.05 491.92-12.63 493.4-11.2 496.65-11.2 499.9-11.2 501.77-12.83 503.65-14.45 503.65-17.25L503.65-17.25Q503.65-22.55 497.35-22.55L497.35-22.55ZM515.84-11.2L515.84-11.2Q515.84-6.75 518.39-4.73 520.94-2.7 524.34-2.7L524.34-2.7Q526.54-2.7 528.86-3.13 531.19-3.55 531.94-3.9L531.94-3.9 532.59-1.55Q531.44-0.8 528.81-0.3 526.19 0.2 524.01 0.2 521.84 0.2 520.11-0.25 518.39-0.7 516.59-1.85 514.79-3 513.74-5.45 512.69-7.9 512.69-11.45L512.69-11.45Q512.69-18.05 516.09-21.55L516.09-21.55Q519.64-25.2 524.34-25.2 529.04-25.2 531.51-22.6 533.99-20 533.99-15.3L533.99-15.3Q533.99-14.3 533.84-13.15L533.84-13.15 515.99-13.15Q515.84-12.1 515.84-11.2ZM530.99-15.65L530.99-15.65Q530.99-18.75 529.14-20.43 527.29-22.1 524.84-22.1L524.84-22.1Q521.49-22.1 519.29-20.08 517.09-18.05 516.34-15.1L516.34-15.1 530.99-15.1Q530.99-15.4 530.99-15.65ZM540.23-8.05L540.48-3.25Q542.58-2.6 543.86-2.6 545.13-2.6 545.53-2.65L545.53-2.65Q548.13-2.7 549.88-3.75 551.63-4.8 551.63-6.7 551.63-8.6 550.26-9.65 548.88-10.7 546.93-11.25 544.98-11.8 543.03-12.45 541.08-13.1 539.71-14.5 538.33-15.9 538.33-18.15L538.33-18.15Q538.33-21.35 540.78-23.28 543.23-25.2 546.98-25.2L546.98-25.2Q549.78-25.2 552.63-24.2L552.63-24.2 553.53-23.85 553.53-18.1 551.08-17.75 550.88-22Q548.88-22.3 547.53-22.3L547.53-22.3Q544.78-22.3 543.18-21.23 541.58-20.15 541.58-18.48 541.58-16.8 542.96-15.85 544.33-14.9 546.28-14.35 548.23-13.8 550.18-13.13 552.13-12.45 553.51-10.93 554.88-9.4 554.88-6.95L554.88-6.95Q554.88-3.65 552.41-1.73 549.93 0.2 545.38 0.2 540.83 0.2 537.83-1.95L537.83-1.95 537.83-7.7 540.23-8.05ZM585.42-2.45L585.42-2.45 587.37-2.55 587.52-0.55Q587.47-0.55 586.82-0.4L586.82-0.4Q585.32-0.05 583.47-0.05L583.47-0.05Q581.77-0.15 580.37-0.63 578.97-1.1 577.77-2.63 576.57-4.15 576.57-6.55L576.57-6.55 576.57-22.1 574.02-22.1 574.42-24.5 576.62-24.95 577.02-29.75 579.82-30 579.82-25 585.87-25 585.87-22.1 579.82-22.1 579.82-7.4Q579.82-2.45 585.42-2.45ZM616.56 0L606.46 0 606.46-2.5 609.51-2.5 609.51-17.1Q609.51-18.85 608.78-19.95 608.06-21.05 606.91-21.4L606.91-21.4Q605.01-22.05 603.81-21.95L603.81-21.95Q600.56-21.85 596.66-19.65L596.66-19.65 596.66-2.5 600.46-2.5 600.46 0 590.36 0 590.36-2.5 593.41-2.5 593.41-35 590.06-35 590.06-37.5 596.66-37.5 596.66-21.9Q603.21-26.4 608.51-24.7L608.51-24.7Q609.71-24.35 610.58-23.68 611.46-23 612.11-21.65 612.76-20.3 612.76-18.4L612.76-18.4 612.76-2.5 616.56-2.5 616.56 0ZM621-11.2L621-11.2Q621-6.75 623.55-4.73 626.1-2.7 629.5-2.7L629.5-2.7Q631.7-2.7 634.03-3.13 636.35-3.55 637.1-3.9L637.1-3.9 637.75-1.55Q636.6-0.8 633.98-0.3 631.35 0.2 629.18 0.2 627 0.2 625.28-0.25 623.55-0.7 621.75-1.85 619.95-3 618.9-5.45 617.85-7.9 617.85-11.45L617.85-11.45Q617.85-18.05 621.25-21.55L621.25-21.55Q624.8-25.2 629.5-25.2 634.2-25.2 636.68-22.6 639.15-20 639.15-15.3L639.15-15.3Q639.15-14.3 639-13.15L639-13.15 621.15-13.15Q621-12.1 621-11.2ZM636.15-15.65L636.15-15.65Q636.15-18.75 634.3-20.43 632.45-22.1 630-22.1L630-22.1Q626.65-22.1 624.45-20.08 622.25-18.05 621.5-15.1L621.5-15.1 636.15-15.1Q636.15-15.4 636.15-15.65ZM661.49-22.5L658.04-22.5 658.04-25 668.54-25 668.54-22.5 665.19-22.5 670.74-4.05 677.29-24.75 680.49-25 685.99-4.05 692.44-22.5 689.04-22.5 689.04-25 699.04-25 699.04-22.5 696.14-22.5 687.59 0 684.59 0 678.74-19.85 671.99 0 668.99 0 661.49-22.5ZM712 0.2Q706.78 0.2 703.55-2.8 700.33-5.8 700.33-11.98 700.33-18.15 703.75-21.68 707.18-25.2 712.38-25.2 717.58-25.2 720.83-22.2 724.08-19.2 724.08-13.03 724.08-6.85 720.65-3.33 717.23 0.2 712 0.2ZM712.3-22.3Q708.58-22.3 706.08-19.6 703.58-16.9 703.58-12.28 703.58-7.65 705.95-5.18 708.33-2.7 712.08-2.7 715.83-2.7 718.33-5.38 720.83-8.05 720.83-12.68 720.83-17.3 718.43-19.8 716.03-22.3 712.3-22.3ZM733.47-16.75L733.47-2.5 737.62-2.5 737.62 0 727.12 0 727.12-2.5 730.22-2.5 730.22-22.5 726.87-22.5 726.87-25 733.47-25 733.47-18.95Q737.42-24.75 741.22-24.85L741.22-24.85Q741.52-24.85 741.82-24.85L741.82-24.85 744.62-24.5 743.32-21.5Q742.37-21.95 740.87-21.95L740.87-21.95Q737.27-21.9 733.47-16.75L733.47-16.75ZM750.56-35L747.21-35 747.21-37.5 753.81-37.5 753.81-2.5 757.56-2.5 757.56 0 747.46 0 747.46-2.5 750.56-2.5 750.56-35ZM763.31-1.85L763.31-1.85Q761.56-3 760.48-5.48 759.41-7.95 759.41-11.5L759.41-11.5Q759.41-18.05 762.76-21.5L762.76-21.5Q766.31-25.2 770.86-25.2L770.86-25.2Q773.66-25.2 776.56-23.75L776.56-23.75 776.56-35 773.21-35 773.21-37.5 779.81-37.5 779.81-2.5 783.66-2.5 783.66 0 777.06 0 776.66-1.6Q773.81 0.2 770.11 0.2 766.41 0.2 763.31-1.85ZM776.56-4.05L776.56-4.05 776.56-21.6Q774.26-22.3 772.21-22.3L772.21-22.3Q767.91-22.3 765.28-19.48 762.66-16.65 762.66-11.55L762.66-11.55Q762.66-8.85 763.43-6.98 764.21-5.1 765.51-4.2L765.51-4.2Q767.76-2.7 770.76-2.7 773.76-2.7 776.56-4.05Z" opacity="1" transform="matrix(1,0,0,1,0,0)" fill="#ffffff" class="slogan-text-1" data-fill-palette-color="secondary" id="text-1"></path></svg></g></svg></g></svg></g></svg></g><g transform="matrix(1,0,0,1,114.51452073373478,0)"><svg viewBox="0 0 168.4685585325304 81.48296679046106" height="81.48296679046106" width="168.4685585325304"><g><svg xmlns="http://www.w3.org/2000/svg" xmlns:xlink="http://www.w3.org/1999/xlink" version="1.1" x="0" y="0" viewBox="0.901 24.104 97.757 47.282" enable-background="new 0 0 100 100" xml:space="preserve" height="81.48296679046106" width="168.4685585325304" class="icon-icon-0" data-fill-palette-color="accent" id="icon-0"><g fill="#f9744c" data-fill-palette-color="accent"><polygon points="29.654,53.495 28.375,52.217 27.098,52.217 24.542,49.662 23.265,49.662 21.986,48.384 19.431,48.384    18.792,49.022 17.514,49.022 14.319,45.828 13.042,45.828 11.763,44.55 11.763,43.272 13.042,41.995 16.875,41.995 21.986,36.883    23.265,36.883 25.82,34.327 27.098,34.327 28.375,33.049 27.098,31.771 25.82,31.771 25.82,30.494 24.542,30.494 21.348,33.688    18.792,31.132 20.069,29.854 21.348,29.854 21.986,29.215 23.265,29.215 24.542,27.938 27.098,30.494 28.375,29.215 28.375,27.938    27.098,26.66 29.654,24.104 25.82,24.104 23.265,26.66 21.986,26.66 20.708,27.938 19.431,26.66 15.597,26.66 14.319,27.938    10.486,27.938 9.847,27.299 6.013,27.299 5.374,27.938 4.097,27.938 0.901,31.132 1.541,31.771 2.819,31.771 4.097,30.494    6.652,30.494 7.93,31.771 7.93,34.327 6.652,35.605 6.652,36.883 5.374,38.161 5.374,39.438 7.93,41.995 7.93,43.272    11.763,47.106 13.042,47.106 15.597,49.662 16.875,49.662 17.514,50.301 17.514,51.577 16.875,52.217 16.875,54.773 17.514,55.411    17.514,56.689 20.708,59.884 20.708,66.274 21.986,67.552 21.986,70.107 23.265,71.386 24.542,71.386 24.542,70.107 23.903,69.469    23.903,68.189 25.82,66.274 25.82,64.995 28.375,62.44 28.376,61.163 30.931,58.606 30.932,57.329 32.209,56.051 32.209,54.773    30.931,53.495  " fill="#ffffff" data-fill-palette-color="accent"></polygon><polygon points="41.793,24.743 41.155,24.104 30.931,24.104 29.654,25.382 30.292,26.021 31.571,26.021 32.209,26.66    32.209,27.938 30.931,29.215 32.209,30.494 33.487,30.494 34.766,29.215 36.043,29.215 37.321,27.938 38.599,27.938  " fill="#ffffff" data-fill-palette-color="accent"></polygon><polygon points="57.768,58.606 57.768,61.163 58.406,61.801 59.045,61.163 59.045,59.884 60.323,58.606 60.323,57.329    59.684,56.689  " fill="#ffffff" data-fill-palette-color="accent"></polygon><polygon points="80.769,54.773 79.491,54.773 75.657,50.939 75.657,52.217 78.851,55.411 81.407,55.411  " fill="#ffffff" data-fill-palette-color="accent"></polygon><polygon points="82.685,50.301 81.407,50.301 81.407,51.577 80.13,52.856 80.769,53.495 82.046,53.495 82.685,52.856    82.685,51.577 83.325,50.939  " fill="#ffffff" data-fill-palette-color="accent"></polygon><rect x="84.603" y="49.662" width="1.277" height="1.278" fill="#ffffff" data-fill-palette-color="accent"></rect><polygon points="89.074,68.189 89.714,67.552 88.436,67.552  " fill="#ffffff" data-fill-palette-color="accent"></polygon><polygon points="89.074,52.856 88.436,53.495 87.157,52.217 87.157,53.495 87.797,54.135 89.074,54.135 90.353,55.411    91.63,55.411 92.27,56.051 92.27,54.773 90.353,52.856  " fill="#ffffff" data-fill-palette-color="accent"></polygon><polygon points="92.27,61.163 92.27,59.884 91.63,59.245 91.63,56.689 90.991,56.051 90.353,56.689 90.353,57.968 89.714,58.606    87.797,56.689 87.157,57.329 85.88,57.329 83.325,59.884 82.046,59.884 80.769,61.163 80.768,63.718 80.13,64.357 80.769,64.995    83.325,64.995 84.603,63.718 85.88,63.718 88.436,66.274 89.714,66.274 92.908,63.079 92.908,61.801  " fill="#ffffff" data-fill-palette-color="accent"></polygon><rect x="84.393" y="39.306" transform="matrix(0.707 -0.7072 0.7072 0.707 -2.8629 72.6054)" width="3.613" height="0.904" fill="#ffffff" data-fill-palette-color="accent"></rect><polygon points="41.147,34.327 41.147,34.327 42.425,34.327 43.703,33.049 43.703,31.771 43.703,31.771 42.425,31.771    41.147,33.049  " fill="#ffffff" data-fill-palette-color="accent"></polygon><polygon points="75.657,49.662 78.212,52.217 78.212,50.939 76.296,49.022 76.936,48.384 78.212,49.662 79.491,48.384    79.491,47.106 78.212,45.828 79.491,44.55 80.769,44.55 82.046,43.272 82.046,40.716 80.769,39.438 80.769,38.161 81.407,37.521    82.046,38.161 83.325,38.161 84.603,36.883 84.603,34.327 82.046,31.771 84.603,31.771 85.88,30.494 89.074,33.688 89.074,31.132    90.991,29.215 89.714,27.938 80.769,27.938 80.13,27.299 75.02,27.299 74.379,26.66 70.547,26.66 69.268,25.382 64.155,25.382    62.879,26.66 61.6,26.66 60.323,27.938 55.211,27.938 54.573,28.577 53.935,27.938 48.822,27.938 45.627,31.132 46.267,31.771    46.266,33.049 44.981,34.327 43.703,34.327 43.064,34.966 43.703,35.605 43.703,36.883 41.147,36.883 40.508,37.521 40.508,38.799    41.154,39.438 42.433,39.438 44.988,36.883 46.267,36.883 46.905,36.244 48.182,37.521 48.822,36.883 50.1,38.161 51.377,38.161    52.655,39.438 55.211,39.438 55.211,40.716 54.572,41.355 52.017,41.355 51.377,40.716 50.099,40.716 49.461,41.355 48.822,40.716    47.544,40.716 46.267,39.438 43.71,39.438 43.072,40.078 41.793,40.078 38.599,43.272 38.599,48.384 41.155,50.939 43.71,50.939    44.35,50.301 45.627,50.301 46.267,50.939 46.267,53.495 48.182,55.411 48.182,56.689 47.544,57.329 47.544,59.884 48.182,60.523    48.182,61.801 48.822,62.44 48.822,63.718 50.1,64.995 51.377,64.995 53.935,62.44 53.935,61.163 57.128,57.968 57.128,56.689    56.489,56.051 56.489,53.495 60.323,49.662 60.323,48.384 57.768,48.384 56.489,47.106 56.489,45.828 54.573,43.911 54.572,42.633    55.211,41.995 55.211,43.272 57.768,45.828 57.768,47.106 58.406,47.745 59.045,47.106 60.323,47.106 62.879,44.55 61.6,43.272    60.323,43.272 59.045,41.995 59.684,41.355 60.961,42.633 62.24,42.633 62.879,43.272 65.434,43.272 67.352,45.188 67.352,46.467    68.629,47.745 68.629,49.022 69.268,49.662 69.906,49.022 69.906,46.467 71.823,44.55 73.102,44.55 75.657,47.106  " fill="#ffffff" data-fill-palette-color="accent"></polygon><polygon points="98.658,64.995 97.381,66.274 97.381,67.552 98.658,66.274  " fill="#ffffff" data-fill-palette-color="accent"></polygon><polygon points="94.824,67.552 93.547,68.829 94.186,69.469 95.463,68.189 96.742,68.189 96.742,66.913 96.104,67.552  " fill="#ffffff" data-fill-palette-color="accent"></polygon></g></svg></g></svg></g><g></g></svg></g><defs></defs></svg><rect width="395.5199999999999" height="154.99599298724328" fill="none" stroke="none" visibility="hidden"></rect></g></svg></g></svg>